<?xml version="1.0" encoding="UTF-8"?>
<svg width="115mm" height="115mm" version="1.1" viewBox="0 0 115 115" xmlns="http://www.w3.org/2000/svg" xmlns:xlink="http://www.w3.org/1999/xlink">
 <defs>
  <linearGradient id="linearGradient16" x1="209.79" x2="231.26" y1="235.64" y2="235.64" gradientTransform="matrix(.34911 0 0 .28902 255.04 175.13)" gradientUnits="userSpaceOnUse">
   <stop stop-color="#435267" offset="0"/>
   <stop stop-color="#293043" offset=".5"/>
   <stop stop-color="#435267" offset="1"/>
  </linearGradient>
  <linearGradient id="linearGradient14" x1="283.9" x2="303.64" y1="486.1" y2="490.39" gradientTransform="matrix(.63301 0 0 .52406 146.19 -13.759)" gradientUnits="userSpaceOnUse">
   <stop stop-color="#5c697b" offset="0"/>
   <stop stop-color="#afbcce" offset=".51919"/>
   <stop stop-color="#e8ecf0" offset=".68058"/>
   <stop stop-color="#c3cee0" offset=".98954"/>
  </linearGradient>
  <linearGradient id="linearGradient407" x1="325.13" x2="348.04" y1="480.88" y2="482.98" gradientTransform="matrix(.91629 0 0 .61369 23.708 -60.593)" gradientUnits="userSpaceOnUse">
   <stop stop-color="#5c697b" offset="0"/>
   <stop stop-color="#afbcce" offset=".49479"/>
   <stop stop-color="#e8ecf0" offset=".6417"/>
   <stop stop-color="#c3cee0" offset="1"/>
  </linearGradient>
  <linearGradient id="linearGradient435" x1="328.54" x2="344.35" y1="483.74" y2="483.74" gradientTransform="matrix(.91629 0 0 .78845 23.708 -142.57)" gradientUnits="userSpaceOnUse" xlink:href="#linearGradient428"/>
  <linearGradient id="linearGradient428">
   <stop stop-color="#59626f" offset="0"/>
   <stop stop-color="#969fae" offset=".87652"/>
  </linearGradient>
  <linearGradient id="linearGradient433" x1="328.92" x2="343.87" y1="480.44" y2="480.44" gradientTransform="matrix(.91629 0 0 .78845 23.708 -142.57)" gradientUnits="userSpaceOnUse" xlink:href="#linearGradient428"/>
  <linearGradient id="linearGradient431" x1="329.02" x2="344.38" y1="476.92" y2="476.92" gradientTransform="matrix(.91629 0 0 .78845 23.708 -142.57)" gradientUnits="userSpaceOnUse" xlink:href="#linearGradient428"/>
  <linearGradient id="linearGradient429" x1="328.49" x2="344.17" y1="472.49" y2="474.31" gradientTransform="matrix(.91629 0 0 .78845 23.708 -142.57)" gradientUnits="userSpaceOnUse" xlink:href="#linearGradient428"/>
  <filter id="filter439" x="-.071898" y="-.026468" width="1.1438" height="1.0529" color-interpolation-filters="sRGB">
   <feGaussianBlur stdDeviation="0.56491031"/>
  </filter>
 </defs>
 <g transform="translate(-27.345 -71.655)">
  <rect x="27.345" y="71.655" width="115" height="115" ry="0" fill-opacity="0" stroke-linecap="square" stroke-width=".22188" style="paint-order:stroke markers fill"/>
  <g transform="translate(-247.11 -65.943)">
   <ellipse cx="332.07" cy="243.81" rx="2.0536" ry=".58003" stroke-width="0"/>
   <path d="m328.28 242.68s1.9942 0.16992 3.8396 0.15297c1.868-0.0172 3.6538-0.17289 3.6538-0.17289s-0.28076 0.26848-0.7091 0.54028c-0.54613 0.34653-0.92459 0.52016-0.92459 0.52016s-1.1904 0.10903-1.9766 0.12231c-0.78624 0.0133-2.1421-0.13332-2.1421-0.13332s-0.53754-0.23247-0.91463-0.4583c-0.35898-0.215-0.82634-0.57121-0.82634-0.57121z" fill="url(#linearGradient16)" stroke-width="0"/>
   <g>
    <path d="m325.99 240.68s3.0006 0.43837 6.0172 0.42509c3.0166-0.0133 5.7123-0.47823 5.7123-0.47823s-0.46834 0.75203-0.81349 1.077c-0.637 0.59966-1.1571 0.96101-1.1571 0.96101s-1.6076 0.30003-3.7096 0.28675c-2.102-0.0133-3.755-0.26796-3.755-0.26796s-0.43438-0.22906-1.1814-0.84791c-0.64811-0.5369-1.1129-1.1557-1.1129-1.1557z" fill="url(#linearGradient14)"/>
    <g fill-rule="evenodd">
     <path d="m327.77 227.7s8.5761-0.20296 9.3943 0.0203c0.81822 0.22327 2.1819 0.5886 2.2728 0.93364 0.0909 0.34504 0.39396 1.6643 0.39396 1.9079 0 0.24355-0.0909 0.95392-0.21213 1.1772-0.12122 0.22325-0.30305 1.0554-0.24244 1.2584 0.0606 0.20297 0.87883 0.95393 1 1.0351 0.12122 0.0812 1.1819 0.18266 1.3637 0.18266s0.54547 0.18267 0.54547 0.18267l-0.0606 0.24356s-1.2425 0.14207-1.6364 0.26385-0.7273 0.46682-0.93943 0.73068c-0.21213 0.26385-0.36366 0.77126-0.0606 1.7658 0.30304 0.99452 0.64885 2.2659-0.0909 2.7806-2.038 1.4181-6.1641 1.5369-7.6168 1.5343-1.505-2e-3 -5.2928-0.27589-6.0202-0.58031-0.7273-0.30445-1.697-0.89304-1.788-1.644-0.0909-0.75097 0.18183-2.2935 0.33334-2.6588 0.15153-0.36533 0.18183-1.1163-0.0606-1.3802-0.24244-0.26386-0.84852-0.5277-1.5455-0.62919-0.69701-0.10148-1.1819-0.18267-1.1819-0.18267l0.0303-0.44652s0.78791 0.0406 1.4849-0.18267c0.697-0.22326 1.6364-0.93363 1.6364-1.3193s-0.54548-1.5019-0.60609-1.9688c-0.0606-0.46682-0.12122-1.3396 0.12121-1.6846 0.24244-0.34504 0.51518-0.85245 1.1819-1.096 0.66669-0.24356 2.3031-0.24356 2.3031-0.24356z" fill="url(#linearGradient407)" style="paint-order:stroke markers fill"/>
     <path d="m327.54 241.78q-1.9184 0-2.9776-0.77248-1.0475-0.7646-1.0475-2.144 0-0.66212 0.24715-1.3085 0.24716-0.64636 0.24716-1.34 0-0.48083-0.34131-0.74884-0.32953-0.268-0.97684-0.37835-0.63554-0.11036-1.5771-0.11036v-1.0405q0.6826 0 1.2122-0.0788 0.54139-0.0867 0.918-0.24435t0.56492-0.38624q0.20008-0.23647 0.20008-0.52813 0-0.72519-0.24716-1.3558-0.24715-0.6306-0.24715-1.2927 0-1.3321 1.0475-2.0494 1.0592-0.72519 2.9776-0.72519 0.58846 0 0.98862 0.0473 0.40015 0.0394 0.72969 0.11035l-0.16478 0.64636q-0.36483-0.0394-0.70614-0.0631-0.34131-0.0315-0.63554-0.0315-1.5535 0-2.3656 0.54389-0.81208 0.53601-0.81208 1.5213 0 0.68578 0.27069 1.3085 0.27069 0.62272 0.27069 1.3085 0 0.82766-0.81207 1.2848-0.81208 0.45718-2.2715 0.47294v0.0631q1.4594 0.0158 2.2715 0.48871 0.81207 0.47295 0.81207 1.2691 0 0.71731-0.27069 1.34t-0.27069 1.277q0 1.0484 0.81208 1.6238 0.81207 0.5833 2.3656 0.5833 0.29423 0 0.63554-0.0315 0.35307-0.0236 0.71792-0.0631l0.153 0.64636q-0.32954 0.0709-0.72969 0.11036-0.40016 0.0473-0.98862 0.0473z" fill="#565f6c" stroke="#505b6d" stroke-linecap="round" stroke-linejoin="round" stroke-width="1.726e-8" style="paint-order:stroke markers fill" aria-label="{"/>
     <path d="m336.41 241.78q1.9184 0 2.9776-0.77248 1.0475-0.7646 1.0475-2.144 0-0.66212-0.24716-1.3085-0.24715-0.64636-0.24715-1.34 0-0.48083 0.3413-0.74884 0.32954-0.268 0.97685-0.37835 0.63554-0.11036 1.5771-0.11036v-1.0405q-0.68262 0-1.2122-0.0788-0.54138-0.0867-0.91799-0.24435-0.37662-0.15765-0.56492-0.38624-0.20008-0.23647-0.20008-0.52813 0-0.72519 0.24715-1.3558 0.24716-0.6306 0.24716-1.2927 0-1.3321-1.0475-2.0494-1.0592-0.72519-2.9776-0.72519-0.58846 0-0.98861 0.0473-0.40015 0.0394-0.72969 0.11035l0.16476 0.64636q0.36485-0.0394 0.70616-0.0631 0.34131-0.0315 0.63554-0.0315 1.5535 0 2.3656 0.54389 0.81208 0.53601 0.81208 1.5213 0 0.68578-0.27069 1.3085-0.2707 0.62272-0.2707 1.3085 0 0.82766 0.81208 1.2848t2.2715 0.47294v0.0631q-1.4594 0.0158-2.2715 0.48871-0.81208 0.47295-0.81208 1.2691 0 0.71731 0.2707 1.34 0.27069 0.62271 0.27069 1.277 0 1.0484-0.81208 1.6238-0.81207 0.5833-2.3656 0.5833-0.29423 0-0.63554-0.0315-0.35307-0.0236-0.71792-0.0631l-0.153 0.64636q0.32954 0.0709 0.72969 0.11036 0.40015 0.0473 0.98861 0.0473z" fill="#565f6c" stroke="#505b6d" stroke-linecap="round" stroke-linejoin="round" stroke-width="1.726e-8" style="paint-order:stroke markers fill" aria-label="{"/>
     <path d="m326.47 238.22c1.1158 0.2072 2.2255 0.45521 3.3582 0.57723 2.5739 0.27728 6.5883 0.33045 7.7714 0.34756 1.1831 0.0171 1.7774-0.0662 1.615 0.32912-0.18651 0.45422-1.3504 0.26955-2.5544 0.25602-1.204-0.0136-4.7267-0.10529-7.0661-0.3714-1.1657-0.1326-2.289-0.3714-3.4559-0.60856-0.52875-0.10747-1.4975-0.27181-1.3822-0.74318 0.12822-0.30634 1.1612 0.11056 1.714 0.21321z" fill="url(#linearGradient435)" style="paint-order:stroke markers fill"/>
     <path d="m326.79 235.61c1.1158 0.20719 1.7964 0.36035 2.71 0.45738 2.5744 0.27341 7.2258 0.34427 7.7714 0.34755 0.54559 3e-3 1.4934-0.034 1.5186 0.32912 0.0333 0.48089-1.2647 0.31565-2.4687 0.30212-1.204-0.0136-4.7212-0.1337-7.0554-0.4175-0.87377-0.10623-1.4212-0.24233-2.588-0.47949-0.52875-0.10747-1.6957-0.17962-1.5805-0.65098 0.12823-0.30635 1.1398 9e-3 1.6926 0.1118z" fill="url(#linearGradient433)" style="paint-order:stroke markers fill"/>
     <path d="m326.49 232.77c1.1158 0.2072 2.2255 0.45521 3.3582 0.57723 2.5739 0.27727 6.5883 0.33045 7.7714 0.34756 1.1831 0.0171 1.7774-0.0662 1.615 0.32912-0.1865 0.45421-1.3504 0.26954-2.5544 0.25601-1.204-0.0136-4.7267-0.10528-7.0661-0.37139-1.1657-0.1326-2.289-0.3714-3.4559-0.60857-0.52874-0.10746-1.0656-0.10231-0.9504-0.57368 0.12822-0.30634 0.72934-0.0589 1.2822 0.0438z" fill="url(#linearGradient431)" style="paint-order:stroke markers fill"/>
     <path d="m326.34 230.05c1.1158 0.2072 2.2256 0.45521 3.3582 0.57723 2.5739 0.27728 6.5883 0.33045 7.7714 0.34756 1.1831 0.0171 1.7774-0.0662 1.615 0.32912-0.1865 0.45422-1.3504 0.26955-2.5544 0.25602-1.204-0.0136-4.7267-0.10529-7.0661-0.3714-1.1657-0.1326-2.289-0.3714-3.4559-0.60856-0.52874-0.10747-1.4975-0.27181-1.3822-0.74318 0.12823-0.30634 1.1612 0.11056 1.714 0.21321z" fill="url(#linearGradient429)" style="paint-order:stroke markers fill"/>
    </g>
    <path d="m331.97 165.32c-13.641 0.2313-24.605 10.359-24.575 22.801 0.0109 3.7764 1.0518 7.4246 2.9493 10.656 3.2587 5.549 9.7942 8.5129 11.092 19.674 0.33621 2.8914-0.044 5.8426 2.1028 7.5607 2.1285 1.7035 5.598 1.2739 8.4546 1.2727 2.8412-9.1e-4 6.2792 0.43076 8.4078-1.2727 2.1468-1.7181 1.7666-4.6693 2.1028-7.5607 1.2977-11.161 7.8332-14.125 11.092-19.674 1.8975-3.2311 2.9384-6.8793 2.9493-10.656 0.0298-12.442-10.934-22.569-24.575-22.801z" fill="#ff0" stroke="#ffe600" stroke-linecap="square" stroke-linejoin="round" stroke-width=".76318"/>
   </g>
   <path d="m323.96 221.69 2.4471-5.2668 1.1026 2.6774 6.0342-13.681 1.4426 6.276 5.7096-15.396 1.1614 6.3917 7.5101-13.667" fill="none" stroke="#093" stroke-linecap="square" stroke-width="1.3458" style="paint-order:stroke markers fill"/>
   <g fill-rule="evenodd">
    <path d="m351.47 190.9-4.8718-2.6664 5.3218-3.917z" fill="#093" stroke-width="0" style="paint-order:stroke markers fill"/>
    <path transform="matrix(-1 0 0 1 667.98 -236.76)" d="m318.87 410.88s-5.8205 7.511-5.6334 11.814c0.0935 2.1515 0.0666 6.1178 1.4407 8.9241 1.3741 2.8063 3.8479 5.3788 4.7834 6.5949s2.6792 2.1363 3.5086 3.231c0.82938 1.0948 1.4591 2.2318 2.241 4.6092 0.7165 2.1785 0.85443 4.3191 1.1944 6.1359 0.33993 1.8168 0.63309 3.3764 0.91372 4.5924 0.56126 2.4322 0.56126 4.0224 2.1515 5.0046 1.1588 0.71572 2.6192 0 2.6192 0s-1.8709-0.37417-2.8063-3.1805c-0.93546-2.8063-1.4967-14.219-3.3676-17.212-1.8709-2.9934-7.9646-9.4914-9.0871-14.543-1.1226-5.0514 2.0419-15.971 2.0419-15.971z" fill="#fff" filter="url(#filter439)" opacity=".81375" style="mix-blend-mode:normal;paint-order:stroke markers fill"/>
    <path d="m334.17 212.96c1.0467-8.4944 2.0752-18.649 1.2768-29.132-0.73947-9.7092-2.8639-17.779-2.8639-17.779 1.1231-0.0392 3.4692 0.32694 3.4692 0.32694 0.97707 3.5598 1.8675 7.7058 2.4798 12.107 0.54146 3.8918 0.68063 7.0227 0.68063 7.0227 1.3028-3.5482 2.5143-7.1943 3.3664-10.537 0.77355-3.0345 1.1823-5.975 1.1823-5.975 2.7293 1.3546 4.1215 2.7167 4.1215 2.7167-0.25189 1.0556-1.4755 5.6073-2.6188 8.7859-1.1392 3.1671-2.4799 6.3837-2.4799 6.3837 1.9715 4.6057 3.4107 8.7678 4.4517 12.432 0.91328 3.2151 1.0814 4.5398 1.0814 4.5398-1.2264 1.4019-3.2679 4.3415-3.2679 4.3415-0.32903-2.3887-1.5257-6.6436-2.8806-11.166-1.2738-4.2516-2.835-8.111-2.835-8.111 0.0715 4.4401-0.18015 9.1192-0.84379 14.545-0.59357 4.8533-1.2723 8.7108-1.2723 8.7108-1.0198 0.37004-2.0366 0.63221-3.0476 0.78759z" fill="#020024" stroke="#ff0" stroke-linecap="round" stroke-linejoin="round" stroke-width=".3" style="paint-order:stroke markers fill"/>
    <path d="m309.91 196.16c-0.58341-1.3992-0.95322-3.0023-1.1251-4.5577-0.27536-2.4915-0.23038-5.1326 0.16446-7.5181 1.2395-7.4888 6.0797-11.366 6.0797-11.366 0.0836 1.894 0.12579 2.2146 0.4554 3.461 0.49275 1.8634 1.3562 3.854 2.4607 6.3813 2.1438 4.9051 4.7066 9.6088 4.7066 9.6088 0.40027 0.77759 0.81859 1.6137 1.2538 2.502 0.43509 0.88798 0.90767 1.8939 1.4186 3.0088-0.50112-5.7017-0.6436-12.507 0.13257-19.516 0.72004-6.5026 2.2785-11.758 2.2785-11.758 1.4853-0.30515 2.8942-0.30833 2.8942-0.30833-2.0071 8.2755-2.7652 19.085-2.2181 29.587 0.50833 9.7585 2.0912 17.365 2.0912 17.365-1.4214-2.1996-3.232-5.0868-5.1461-8.2516-1.9671-3.2524-3.8139-6.4188-5.4939-9.4309-3.3174-5.948-4.9546-9.4567-4.9546-9.4567-0.27812-0.58669-0.52873-1.1835-0.74874-1.7872-0.21218-0.60562-0.39008-1.2198-0.53151-1.8422-0.97371 4.6135-1.182 8.6599-0.34995 12.941 0.85533 4.4006 2.9914 9.6954 2.9914 9.6954-0.88272-0.72906-3.386-3.6369-3.8271-4.2136-0.9167-1.2706-1.6552-2.4423-2.5319-4.545z" fill="#020024" stroke="#ff0" stroke-linecap="round" stroke-linejoin="round" stroke-width=".3" style="paint-order:stroke markers fill"/>
   </g>
   <g transform="translate(5.6645 -79.452)">
    <g fill="#ffff00" font-family="'Cascadia Mono'" font-size="30.992px" font-weight="300" letter-spacing="0px" stroke-linecap="round" stroke-linejoin="round" stroke-width="0">
     <text transform="matrix(-.62277 -.81189 .77544 -.59481 0 0)" x="-375.82516" y="107.24068" xml:space="preserve"><tspan x="-375.82516" y="107.24068" fill="#ffff00" font-family="'Cascadia Mono'" font-weight="300" stroke-width="0">&gt;</tspan></text>
     <text transform="matrix(-1.0041 -.19689 .18805 -.95903 0 0)" x="-336.65839" y="-193.38306" xml:space="preserve"><tspan x="-336.65839" y="-193.38306" fill="#ffff00" font-family="'Cascadia Mono'" font-weight="300" stroke-width="0">&gt;</tspan></text>
     <text transform="matrix(-.865 .54662 -.52207 -.82616 0 0)" x="-104.83747" y="-395.58942" xml:space="preserve"><tspan x="-104.83747" y="-395.58942" fill="#ffff00" font-family="'Cascadia Mono'" font-weight="300" stroke-width="0">&gt;</tspan></text>
     <text transform="matrix(.86439 .54757 .52298 -.82558 0 0)" x="434.4046" y="-38.551788" xml:space="preserve"><tspan x="434.4046" y="-38.551788" fill="#ffff00" font-family="'Cascadia Mono'" font-weight="300" stroke-width="0">&gt;</tspan></text>
     <text transform="matrix(1.0038 -.19826 -.18936 -.95877 0 0)" x="288.70648" y="-322.46521" xml:space="preserve"><tspan x="288.70648" y="-322.46521" fill="#ffff00" font-family="'Cascadia Mono'" font-weight="300" stroke-width="0">&gt;</tspan></text>
    </g>
    <path d="m339.51 241.55 1.6187 1.2185 11.497-6.6183 0.14178 0.10671-3.1782 12.879 1.6187 1.2185 3.6124-15.227-1.678-1.2627z" fill="#ff0" aria-label="&gt;"/>
    <path d="m318.99 239.62 2.0261-6e-3 5.1666-12.218 0.17747-5.7e-4 5.2448 12.185 2.0261-6e-3 -6.3164-14.318-2.1 7e-3z" fill="#ff0" aria-label="&gt;"/>
   </g>
  </g>
 </g>
</svg>
